<svg xmlns="http://www.w3.org/2000/svg" viewBox="0 0 18 18" shape-rendering="crispEdges">
    <!-- antenna -->
    <rect x="8" y="0" width="2" height="1" fill="#2e7d32" />
    <rect x="7" y="1" width="1" height="1" fill="#1a1a1a" />
    <rect x="8" y="1" width="2" height="1" fill="#2e7d32" />
    <rect x="10" y="1" width="1" height="1" fill="#1a1a1a" />
    <rect x="6" y="2" width="2" height="1" fill="#1a1a1a" />
    <rect x="8" y="2" width="2" height="1" fill="#2e7d32" />
    <rect x="10" y="2" width="2" height="1" fill="#1a1a1a" />
    <!-- arm nubs + head top -->
    <rect x="2" y="3" width="2" height="1" fill="#1a1a1a" />
    <rect x="5" y="3" width="1" height="1" fill="#1a1a1a" />
    <rect x="6" y="3" width="6" height="1" fill="#2e7d32" />
    <rect x="12" y="3" width="1" height="1" fill="#1a1a1a" />
    <rect x="14" y="3" width="2" height="1" fill="#1a1a1a" />
    <rect x="2" y="4" width="3" height="1" fill="#1a1a1a" />
    <rect x="5" y="4" width="8" height="1" fill="#2e7d32" />
    <rect x="13" y="4" width="3" height="1" fill="#1a1a1a" />
    <!-- ears (white flame shapes) -->
    <rect x="0" y="5" width="2" height="1" fill="#ffffff" />
    <rect x="2" y="5" width="1" height="1" fill="#1a1a1a" />
    <rect x="3" y="5" width="12" height="1" fill="#2e7d32" />
    <rect x="15" y="5" width="1" height="1" fill="#1a1a1a" />
    <rect x="16" y="5" width="2" height="1" fill="#ffffff" />
    <rect x="0" y="6" width="1" height="1" fill="#1a1a1a" />
    <rect x="1" y="6" width="1" height="1" fill="#ffffff" />
    <rect x="2" y="6" width="1" height="1" fill="#1a1a1a" />
    <rect x="3" y="6" width="12" height="1" fill="#2e7d32" />
    <rect x="15" y="6" width="1" height="1" fill="#1a1a1a" />
    <rect x="16" y="6" width="1" height="1" fill="#ffffff" />
    <rect x="17" y="6" width="1" height="1" fill="#1a1a1a" />
    <rect x="1" y="7" width="1" height="1" fill="#1a1a1a" />
    <rect x="3" y="7" width="12" height="1" fill="#2e7d32" />
    <rect x="16" y="7" width="1" height="1" fill="#1a1a1a" />
    <!-- head sides close, cap fill continues -->
    <rect x="2" y="8" width="1" height="1" fill="#1a1a1a" />
    <rect x="3" y="8" width="12" height="1" fill="#2e7d32" />
    <rect x="15" y="8" width="1" height="1" fill="#1a1a1a" />
    <!-- highlight band -->
    <rect x="2" y="9" width="1" height="1" fill="#1a1a1a" />
    <rect x="3" y="9" width="12" height="1" fill="#81c784" />
    <rect x="15" y="9" width="1" height="1" fill="#1a1a1a" />
    <!-- body -->
    <rect x="2" y="10" width="1" height="1" fill="#1a1a1a" />
    <rect x="3" y="10" width="12" height="1" fill="#4caf50" />
    <rect x="15" y="10" width="1" height="1" fill="#1a1a1a" />
    <!-- eyes -->
    <rect x="2" y="11" width="1" height="1" fill="#1a1a1a" />
    <rect x="3" y="11" width="2" height="1" fill="#4caf50" />
    <rect x="5" y="11" width="2" height="1" fill="#1a1a1a" />
    <rect x="7" y="11" width="4" height="1" fill="#4caf50" />
    <rect x="11" y="11" width="2" height="1" fill="#1a1a1a" />
    <rect x="13" y="11" width="2" height="1" fill="#4caf50" />
    <rect x="15" y="11" width="1" height="1" fill="#1a1a1a" />
    <!-- body -->
    <rect x="2" y="12" width="1" height="1" fill="#1a1a1a" />
    <rect x="3" y="12" width="12" height="1" fill="#4caf50" />
    <rect x="15" y="12" width="1" height="1" fill="#1a1a1a" />
    <!-- cheeks -->
    <rect x="2" y="13" width="1" height="1" fill="#1a1a1a" />
    <rect x="3" y="13" width="2" height="1" fill="#c9a26a" />
    <rect x="5" y="13" width="8" height="1" fill="#4caf50" />
    <rect x="13" y="13" width="2" height="1" fill="#c9a26a" />
    <rect x="15" y="13" width="1" height="1" fill="#1a1a1a" />
    <!-- lower body taper -->
    <rect x="3" y="14" width="1" height="1" fill="#1a1a1a" />
    <rect x="4" y="14" width="10" height="1" fill="#4caf50" />
    <rect x="14" y="14" width="1" height="1" fill="#1a1a1a" />
    <rect x="4" y="15" width="1" height="1" fill="#1a1a1a" />
    <rect x="5" y="15" width="8" height="1" fill="#4caf50" />
    <rect x="13" y="15" width="1" height="1" fill="#1a1a1a" />
    <!-- feet -->
    <rect x="6" y="16" width="2" height="1" fill="#1a1a1a" />
    <rect x="10" y="16" width="2" height="1" fill="#1a1a1a" />
    <rect x="7" y="17" width="1" height="1" fill="#1a1a1a" />
    <rect x="10" y="17" width="1" height="1" fill="#1a1a1a" />
</svg>
